<svg version="1.2" xmlns="http://www.w3.org/2000/svg" viewBox="0 0 1561 1263" width="1561" height="1263">
	<title>Nagarro green logo with title_opt-svg</title>
	<defs>
		<clipPath clipPathUnits="userSpaceOnUse" id="cp1">
			<path d="m0.61 0.38h5299.24v1269.37h-5299.24z"/>
		</clipPath>
	</defs>
	<style>
		.s0 { fill: #47d7ac } 
	</style>
	<g id="Clip-Path" clip-path="url(#cp1)">
		<g id="Layer">
			<path id="Layer" fill-rule="evenodd" class="s0" d="m1169.7 1262.5c-162 0-368.4-104.4-548.1-279.6-8.1 22.5-17.8 44.2-27.5 65.1-62.4 125.3-151.4 193.6-251 193.6-99.6 0-190.3-67.5-252.6-189.6-58.3-110.8-89.9-261.1-89.9-421 0-261.1 86.6-481.2 226.7-575.2 97.2-65.1 219.4-73.1 353-23.3 113.3 41.8 235.6 125.3 356.2 243.4 10.5-28.1 23.5-56.2 38.8-82.7 63.2-110.9 151.4-171.9 247.8-171.9 192.6 0 337.6 261.9 337.6 609.7 0 151.1-27.5 289.3-80.2 401-22.6 50.6-54.2 96.4-92.3 137.3-33.2 36.2-75.3 63.5-122.2 79.6q-11.7 3.4-23.7 5.9-11.9 2.6-24 4.3-12.1 1.7-24.3 2.6-12.1 0.8-24.3 0.8zm-523-359.9c225.8 234.6 468.7 316.5 596.6 274.8 65.6-21.7 125.5-84.4 169.2-177.6 47.8-101.2 72.9-229 72.9-368.8 0-147.8-28.4-285.2-81-387.2-49.4-95.6-113.3-148.6-181.3-148.6-98 0-183 97.2-228.3 241 182.1 199.2 302 442.7 291.4 598.5-4 56.3-24.3 100.5-59.1 129.4l-3.2 2.4c-38.9 25.7-84.2 27.3-128.7 3.2-115.8-61-209.7-285.2-209.7-498.1 0-72.3 8.1-144.6 25.9-215.3-246.1-253.9-485.8-343.1-642-238.6-118.2 78.7-194.3 280.4-194.3 513.3 0 301.3 117.3 536.7 267.1 536.7 93.1 0 174.1-96.4 220.2-245-119.8-133.4-210.4-282-255.8-420.2-43.7-135-38.8-244.3 13.8-298.9 34-35.4 84.2-44.2 137.6-22.5 110.1 44.2 222.6 210.5 222.6 442.7 0 94-11.3 187.2-33.9 278.8zm327-478q-3.2 18.1-5.7 36.5-2.5 18.3-4.1 36.7-1.6 18.4-2.4 36.9-0.8 18.4-0.7 36.9c0 201.6 89.9 389.6 170 432.2 24.3 12.9 39.7 8.1 50.2 0.8 17.8-15.2 28.3-40.9 30.8-74.7 8.1-126.1-89.9-331-238.1-505.3zm-571.5-180.8q-3.9 0-7.6 0.7-3.8 0.7-7.3 2.2-3.5 1.4-6.7 3.5-3.2 2.1-5.9 4.8c-24.3 24.9-37.3 98.9 3.2 224.2 37.2 115.7 110.1 239.4 207.2 354.3 13.8-69.9 20.3-139.8 19.5-210.5 0.8-221-106.9-345.5-174.9-372.8-8.9-4-17.8-5.6-27.5-6.4z"/>
		</g>
	</g>
</svg>